# xmcd
#
# Track frame offsets: 
#        150
#        17118
#        34218
#
# Disc length: 675 seconds
#
# Revision: 0
# Processed by: cddbd v1.5.2PL0 Copyright (c) Steve Scherf et al.
# Submitted via: ExactAudioCopy v0.95b4
#
DISCID=1d02a103
DTITLE=50 Cent - I Still Will (Promo)
DYEAR=2007
DGENRE=Hip-Hop
TTITLE0=I Still Kill (Will) (Clean)
TTITLE1=I Still Kill
TTITLE2=I Still Kill (INST)
EXTD=
EXTT0=
EXTT1=
EXTT2=
PLAYORDER=
